<svg width="57" height="50" viewBox="0 0 57 50" fill="none" xmlns="http://www.w3.org/2000/svg">
<rect width="56.8966" height="50" rx="4" fill="#7B4FFE"/>
<path d="M43.7031 14.3797C43.5085 14.1288 43.2251 13.9621 42.9113 13.914C42.5974 13.866 42.2771 13.9402 42.0164 14.1214C41.7556 14.3027 41.5744 14.5771 41.5101 14.888C41.4458 15.1989 41.5033 15.5227 41.6708 15.7925C43.1151 17.8676 44.0507 20.2536 44.4019 22.7574C44.7532 25.2612 44.5102 27.8126 43.6926 30.205C42.8749 32.5975 41.5057 34.7639 39.6956 36.5291C37.8855 38.2943 35.6853 39.6087 33.273 40.3659C30.8607 41.1231 28.3041 41.3019 25.8099 40.8878C23.3157 40.4738 20.954 39.4785 18.9158 37.9824C16.8776 36.4864 15.2201 34.5316 14.0775 32.2763C12.9348 30.0209 12.339 27.5282 12.3383 24.9999C12.3539 21.5334 13.4804 18.1633 15.5525 15.3842C17.6245 12.6052 20.5329 10.5636 23.8507 9.55917C24.0069 9.51279 24.1525 9.43609 24.2791 9.33346C24.4057 9.23082 24.5108 9.10426 24.5885 8.96099C24.6662 8.81773 24.7148 8.66056 24.7318 8.49848C24.7487 8.3364 24.7336 8.17256 24.6872 8.01633C24.6408 7.86011 24.5641 7.71454 24.4615 7.58796C24.3588 7.46137 24.2323 7.35624 24.089 7.27857C23.9457 7.20089 23.7886 7.1522 23.6265 7.13526C23.4644 7.11832 23.3006 7.13348 23.1444 7.17986C19.8402 8.16355 16.8746 10.0467 14.5792 12.619C12.2838 15.1912 10.7489 18.3511 10.1462 21.7455C9.54343 25.1399 9.89652 28.635 11.166 31.8403C12.4355 35.0456 14.5713 37.8346 17.3348 39.8958C20.0983 41.9569 23.3806 43.209 26.8147 43.5119C30.2489 43.8149 33.6997 43.1568 36.7813 41.6113C39.863 40.0658 42.4542 37.6938 44.2652 34.7603C46.0762 31.8268 47.0358 28.4474 47.0366 24.9999C47.0435 21.2014 45.8795 17.493 43.7031 14.3797Z" fill="#FAFAFA"/>
<path d="M33.0455 9.55918C34.9775 10.1454 36.7812 11.0914 38.3618 12.3474C38.4896 12.4483 38.6359 12.5231 38.7926 12.5674C38.9492 12.6117 39.113 12.6248 39.2747 12.6058C39.4364 12.5868 39.5927 12.5362 39.7348 12.4568C39.8769 12.3773 40.002 12.2707 40.1029 12.143C40.2038 12.0152 40.2786 11.8688 40.3229 11.7122C40.3672 11.5556 40.3803 11.3917 40.3613 11.2301C40.3423 11.0684 40.2916 10.912 40.2122 10.7699C40.1328 10.6278 40.0262 10.5028 39.8984 10.4019C38.0568 8.94349 35.9538 7.84994 33.7023 7.17987C33.3868 7.0862 33.047 7.12171 32.7577 7.27858C32.4683 7.43545 32.2532 7.70083 32.1595 8.01635C32.0658 8.33187 32.1013 8.67167 32.2582 8.96101C32.4151 9.25034 32.6804 9.46551 32.996 9.55918H33.0455ZM27.5682 8.53063C27.6886 8.64009 27.8269 8.72811 27.9771 8.79086C28.1254 8.85643 28.2858 8.89029 28.448 8.89029C28.6102 8.89029 28.7706 8.85643 28.9189 8.79086C29.069 8.72789 29.2073 8.6399 29.3279 8.53063C29.4427 8.41483 29.5336 8.27751 29.5953 8.12652C29.6569 7.97554 29.6882 7.81387 29.6872 7.65078C29.6827 7.32267 29.5543 7.00841 29.3279 6.77093C29.1848 6.62172 29.0067 6.51068 28.8097 6.44791C28.6127 6.38514 28.4032 6.37264 28.2002 6.41155C28.1226 6.42529 28.0474 6.45035 27.9771 6.48591C27.898 6.51275 27.823 6.55028 27.754 6.59744L27.5682 6.74614C27.4553 6.864 27.3669 7.00297 27.3079 7.15509C27.2412 7.31175 27.2074 7.48049 27.2088 7.65078C27.2107 7.81272 27.2444 7.9727 27.3079 8.12168C27.3709 8.27175 27.4589 8.41003 27.5682 8.53063ZM17.5304 23.2898C17.3978 23.4211 17.2925 23.5775 17.2207 23.7498C17.1488 23.9221 17.1118 24.1069 17.1118 24.2936C17.1118 24.4802 17.1488 24.6651 17.2207 24.8373C17.2925 25.0096 17.3978 25.166 17.5304 25.2973L24.6188 32.4353C24.7502 32.5679 24.9065 32.6732 25.0788 32.745C25.2511 32.8169 25.4359 32.8539 25.6226 32.8539C25.8093 32.8539 25.9941 32.8169 26.1664 32.745C26.3387 32.6732 26.495 32.5679 26.6264 32.4353L39.3656 19.6341C39.64 19.3679 39.7975 19.0035 39.8033 18.6212C39.8091 18.2389 39.6628 17.87 39.3966 17.5956C39.1303 17.3211 38.766 17.1637 38.3837 17.1579C38.0014 17.1521 37.6325 17.2984 37.358 17.5646L25.6102 29.3124L19.538 23.2898C19.2711 23.0249 18.9103 22.8763 18.5342 22.8763C18.1582 22.8763 17.7974 23.0249 17.5304 23.2898Z" fill="#FAFAFA"/>
</svg>
