<svg width="373" height="66" viewBox="0 0 373 66" fill="none" xmlns="http://www.w3.org/2000/svg">
<rect width="67" height="66" rx="10" fill="#2F0163"/>
<rect x="305" width="68" height="66" rx="10" fill="#2F0163"/>
<rect x="203" width="67" height="66" rx="10" fill="#2F0163"/>
<rect x="102" width="67" height="66" rx="10" fill="#2F0163"/>
<path fill-rule="evenodd" clip-rule="evenodd" d="M138.78 58V36.4H145.201L146.25 26.8H138.78V22.1242C138.78 19.6522 138.842 17.2 142.224 17.2H145.65V10.3363C145.65 10.2331 142.707 10 139.73 10C133.513 10 129.62 13.9773 129.62 21.2805V26.8H122.75V36.4H129.62V58H138.78Z" fill="#FAFAFA"/>
<g clip-path="url(#clip0_78_2)">
<path fill-rule="evenodd" clip-rule="evenodd" d="M260 56H250.4V39.2023C250.4 34.5943 248.367 32.0234 244.722 32.0234C240.754 32.0234 238.4 34.7023 238.4 39.2023V56H228.8V24.8H238.4V28.3086C238.4 28.3086 241.412 23.0234 248.199 23.0234C254.989 23.0234 260 27.1667 260 35.7395V56ZM217.861 19.8102C214.623 19.8102 212 17.1655 212 13.9039C212 10.6447 214.623 8 217.861 8C221.096 8 223.719 10.6447 223.719 13.9039C223.722 17.1655 221.096 19.8102 217.861 19.8102ZM212 56H224V24.8H212V56Z" fill="#FAFAFA"/>
</g>
<path fill-rule="evenodd" clip-rule="evenodd" d="M349.753 46.5477L351.8 52.537C351.027 53.6521 347.52 54.9434 344.372 54.9959C335.043 55.1534 331.482 48.48 331.482 43.7802V29.8H327.2V24.632C333.698 22.3346 335.259 16.5866 335.625 13.3127C335.651 13.088 335.831 13 335.936 13H342.188V23.5H350.753V29.8H342.188V43.1332C342.188 44.9098 342.876 47.3619 346.304 47.2716C347.441 47.2443 348.956 46.9194 349.753 46.5477Z" fill="#FAFAFA"/>
<path fill-rule="evenodd" clip-rule="evenodd" d="M33 48.25C41.2843 48.25 48 41.6462 48 33.5C48 25.3538 41.2843 18.75 33 18.75C24.7157 18.75 18 25.3538 18 33.5C18 41.6462 24.7157 48.25 33 48.25ZM33 43.3333C38.5228 43.3333 43 38.9307 43 33.5C43 28.0692 38.5228 23.6667 33 23.6667C27.4771 23.6667 23 28.0692 23 33.5C23 38.9307 27.4771 43.3333 33 43.3333Z" fill="#FAFAFA"/>
<path d="M48 16.2917C46.6193 16.2917 45.5 17.3924 45.5 18.7501C45.5 20.1078 46.6193 21.2084 48 21.2084C49.3807 21.2084 50.5 20.1078 50.5 18.7501C50.5 17.3924 49.3807 16.2917 48 16.2917Z" fill="#FAFAFA"/>
<path fill-rule="evenodd" clip-rule="evenodd" d="M7.1349 14.5119C5.5 17.6671 5.5 21.7975 5.5 30.0583V36.9416C5.5 45.2023 5.5 49.3328 7.1349 52.4878C8.573 55.2633 10.8677 57.5198 13.6901 58.9338C16.8988 60.5416 21.0992 60.5416 29.5 60.5416H36.5C44.9007 60.5416 49.1012 60.5416 52.3097 58.9338C55.1322 57.5198 57.427 55.2633 58.865 52.4878C60.5 49.3328 60.5 45.2023 60.5 36.9416V30.0583C60.5 21.7975 60.5 17.6671 58.865 14.5119C57.427 11.7365 55.1322 9.48004 52.3097 8.0659C49.1012 6.45825 44.9007 6.45825 36.5 6.45825H29.5C21.0992 6.45825 16.8988 6.45825 13.6901 8.0659C10.8677 9.48004 8.573 11.7365 7.1349 14.5119ZM36.5 11.3749H29.5C25.2171 11.3749 22.3056 11.3788 20.0552 11.5595C17.8631 11.7357 16.7421 12.0549 15.9601 12.4467C14.0785 13.3894 12.5487 14.8938 11.5899 16.744C11.1915 17.513 10.8668 18.6153 10.6877 20.7709C10.5039 22.9838 10.5 25.8467 10.5 30.0583V36.9416C10.5 41.1532 10.5039 44.0159 10.6877 46.2289C10.8668 48.3846 11.1915 49.4869 11.5899 50.2559C12.5487 52.1061 14.0785 53.6103 15.9601 54.5531C16.7421 54.9449 17.8631 55.2643 20.0552 55.4403C22.3056 55.621 25.2171 55.6249 29.5 55.6249H36.5C40.783 55.6249 43.6942 55.621 45.9447 55.4403C48.137 55.2643 49.258 54.9449 50.04 54.5531C51.9215 53.6103 53.4512 52.1061 54.41 50.2559C54.8085 49.4869 55.1332 48.3846 55.3122 46.2289C55.496 44.0159 55.5 41.1532 55.5 36.9416V30.0583C55.5 25.8467 55.496 22.9838 55.3122 20.7709C55.1332 18.6153 54.8085 17.513 54.41 16.744C53.4512 14.8938 51.9215 13.3894 50.04 12.4467C49.258 12.0549 48.137 11.7357 45.9447 11.5595C43.6942 11.3788 40.783 11.3749 36.5 11.3749Z" fill="#FAFAFA"/>
<defs>
<clipPath id="clip0_78_2">
<rect width="48" height="48" fill="white" transform="translate(212 8)"/>
</clipPath>
</defs>
</svg>
